<svg xmlns="http://www.w3.org/2000/svg" xmlns:xlink="http://www.w3.org/1999/xlink" xmlns:lucid="lucid" width="936" height="788.8"><g transform="translate(-92 -79.20000000000005)" lucid:page-tab-id="KoDZ9ZTVkv0PG"><path d="M0 0h1360v1760H0z" fill="#fff"/><path d="M896 489.6c0 35.35-28.65 64-64 64s-64-28.65-64-64 28.65-64 64-64 64 28.65 64 64z" stroke="#000" stroke-width="1.33" fill-opacity="0"/><path d="M832 553.6v-128" stroke="#000" stroke-width="1.33" fill="none"/><path d="M832.67 554.26H832l-.67-.02v-.66h1.34zM832.67 424.96v.66h-1.34v-.68H832z"/><path d="M776 470.4h64v32h-64z" stroke="#000" stroke-opacity="0" stroke-width="1.33" fill-opacity="0"/><use xlink:href="#a" transform="matrix(1,0,0,1,796,470.40000000000003) translate(-5.779150390624999 23.81494140625)"/><path d="M848 467.4h36.1v44.4H848z" fill="#fff" fill-opacity="0"/><path d="M861.38 497.06l1.84-7.04c2.06-7.96 5.9-15.66 13.28-15.66 3.2 0 5.68 2.5 5.68 8.4 0 7.64-6.4 15.93-16.84 15.93l-2.17 9.3h-4.5l2.33-9.3c-5.85 0-10.3-3.32-10.3-9 0-7.8 6.46-15.5 15.12-15.5h1.36l-.27.87c-6.22.65-11.64 7.3-11.64 14.4 0 4.3 2.7 7.6 6.12 7.6m7.2-11.87l-2.87 11.86c5.16 0 11.93-7.53 11.93-14.62 0-4.4-1.2-5.04-2.38-5.04-2.6 0-5.58 3.36-6.66 7.8"/><path d="M112 104.2c0-2.76 2.24-5 5-5h886c2.76 0 5 2.24 5 5V843c0 2.76-2.24 5-5 5H117c-2.76 0-5-2.24-5-5z" stroke="#e5e5e5" stroke-width="2" fill="#999" fill-opacity=".32"/><path d="M752 368h160v32H752z" stroke="#e5e5e5" stroke-width="1.33" fill-opacity="0"/><use xlink:href="#b" transform="matrix(1,0,0,1,772,368) translate(27.236328125 15.361328125)"/><use xlink:href="#c" transform="matrix(1,0,0,1,772,368) translate(33.3154296875 35.177734375)"/><path d="M152 152h176v668.8H152zM608 300.8c0 35.35-28.65 64-64 64s-64-28.65-64-64 28.65-64 64-64 64 28.65 64 64z" stroke="#000" stroke-width="1.33" fill-opacity="0"/><path d="M544 364.8v-128" stroke="#000" stroke-width="1.33" fill="none"/><path d="M544.67 365.46H544l-.67-.02v-.66h1.34zM544.67 236.16v.66h-1.34v-.68H544z"/><path d="M488 281.6h64v32h-64z" stroke="#000" stroke-opacity="0" stroke-width="1.33" fill-opacity="0"/><use xlink:href="#d" transform="matrix(1,0,0,1,508,281.6) translate(-5.779150390624999 23.81494140625)"/><path d="M555.9 278.6H592V323h-36.1z" fill="#fff" fill-opacity="0"/><path d="M569.27 308.26l1.85-7.04c2.05-7.96 5.9-15.66 13.27-15.66 3.18 0 5.68 2.5 5.68 8.4 0 7.64-6.4 15.93-16.85 15.93l-2.17 9.3h-4.5l2.33-9.3c-5.86 0-10.3-3.32-10.3-9 0-7.8 6.45-15.5 15.12-15.5h1.35l-.27.87c-6.23.65-11.65 7.3-11.65 14.4 0 4.3 2.7 7.6 6.12 7.6m7.2-11.87l-2.86 11.86c5.15 0 11.93-7.53 11.93-14.62 0-4.4-1.2-5.04-2.4-5.04-2.6 0-5.57 3.36-6.65 7.8"/><path d="M608 489.6c0 35.35-28.65 64-64 64s-64-28.65-64-64 28.65-64 64-64 64 28.65 64 64z" stroke="#000" stroke-width="1.33" fill-opacity="0"/><path d="M544 553.6v-128" stroke="#000" stroke-width="1.33" fill="none"/><path d="M544.67 554.26H544l-.67-.02v-.66h1.34zM544.67 424.96v.66h-1.34v-.68H544z"/><path d="M488 470.4h64v32h-64z" stroke="#000" stroke-opacity="0" stroke-width="1.33" fill-opacity="0"/><use xlink:href="#e" transform="matrix(1,0,0,1,508,470.40000000000003) translate(-5.779150390624999 23.81494140625)"/><path d="M555.9 467.2H592v44.37h-36.1z" fill="#fff" fill-opacity="0"/><path d="M569.27 496.85l1.85-7.04c2.05-7.96 5.9-15.65 13.27-15.65 3.18 0 5.68 2.5 5.68 8.4 0 7.64-6.4 15.92-16.85 15.92l-2.17 9.32h-4.5l2.33-9.33c-5.86 0-10.3-3.3-10.3-9 0-7.8 6.45-15.48 15.12-15.48h1.35l-.27.85c-6.23.65-11.65 7.32-11.65 14.4 0 4.3 2.7 7.6 6.12 7.6m7.2-11.86l-2.86 11.85c5.15 0 11.93-7.53 11.93-14.63 0-4.4-1.2-5.04-2.4-5.04-2.6 0-5.57 3.36-6.65 7.8"/><path d="M608 684.8c0 35.35-28.65 64-64 64s-64-28.65-64-64 28.65-64 64-64 64 28.65 64 64z" stroke="#000" stroke-width="1.33" fill-opacity="0"/><path d="M544 748.8v-128" stroke="#000" stroke-width="1.33" fill="none"/><path d="M544.67 749.46H544l-.67-.02v-.66h1.34zM544.67 620.16v.66h-1.34v-.68H544z"/><path d="M488 665.6h64v32h-64z" stroke="#000" stroke-opacity="0" stroke-width="1.33" fill-opacity="0"/><use xlink:href="#f" transform="matrix(1,0,0,1,508,665.6) translate(-5.779150390624999 23.81494140625)"/><path d="M555.9 661.23H592v44.37h-36.1z" fill="#fff" fill-opacity="0"/><path d="M569.27 690.88l1.85-7.05c2.05-7.96 5.9-15.65 13.27-15.65 3.18 0 5.68 2.5 5.68 8.4 0 7.63-6.4 15.92-16.85 15.92l-2.17 9.32h-4.5l2.33-9.32c-5.86 0-10.3-3.3-10.3-9 0-7.8 6.45-15.5 15.12-15.5h1.35l-.27.88c-6.23.65-11.65 7.3-11.65 14.4 0 4.3 2.7 7.6 6.12 7.6m7.2-11.87l-2.86 11.88c5.15 0 11.93-7.53 11.93-14.63 0-4.4-1.2-5.04-2.4-5.04-2.6 0-5.57 3.37-6.65 7.8"/><path d="M304 233.6c0 35.35-28.65 64-64 64s-64-28.65-64-64 28.65-64 64-64 64 28.65 64 64z" stroke="#000" stroke-width="1.33" fill-opacity="0"/><use xlink:href="#g" transform="matrix(1,0,0,1,176,169.60000000004658) translate(52.9646728515625 71.81494140625)"/><path d="M304 403.2c0 35.35-28.65 64-64 64s-64-28.65-64-64 28.65-64 64-64 64 28.65 64 64z" stroke="#000" stroke-width="1.33" fill-opacity="0"/><use xlink:href="#h" transform="matrix(1,0,0,1,176,339.20000000000005) translate(52.9646728515625 71.81494140625)"/><path d="M304 569.6c0 35.35-28.65 64-64 64s-64-28.65-64-64 28.65-64 64-64 64 28.65 64 64z" stroke="#000" stroke-width="1.33" fill-opacity="0"/><use xlink:href="#i" transform="matrix(1,0,0,1,176,505.6) translate(52.9646728515625 71.81494140625)"/><path d="M192 544h128v128H192z" stroke="#000" stroke-opacity="0" stroke-width="1.33" fill-opacity="0"/><path d="M305.15 744.36l166.9-425.02" stroke="red" stroke-width="2.67" fill="none"/><path d="M306.4 744.8l-1.6 4.08-.26-.1.13-3.17v-.56l-.05-.93z" fill="red"/><path d="M477.76 304.82l-.9 14.97-8.63-3.4z" stroke="red" stroke-width="2.67" fill="red"/><path d="M305.04 745.05L469.7 503.72" stroke="#000" stroke-width="1.33" fill="none"/><path d="M305.6 745.4l-.98 1.45.05-1.24v-.56l-.02-.28z"/><path d="M478.12 491.38l-4.2 14.4-7.67-5.23z" stroke="#000" stroke-width="1.33"/><path d="M305.3 745.38l157.9-54.96" stroke="#000" stroke-width="1.33" fill="none"/><path d="M305.53 746l-.9.32.04-.7v-.72l.42-.15z"/><path d="M477.3 685.5l-11.95 9.08-3.05-8.76z" stroke="#000" stroke-width="1.33"/><path d="M304 745.6c0 35.35-28.65 64-64 64s-64-28.65-64-64 28.65-64 64-64 64 28.65 64 64z" stroke="#000" stroke-width="1.33" fill-opacity="0"/><use xlink:href="#j" transform="matrix(1,0,0,1,176,681.6) translate(52.9646728515625 59.82021484375)"/><use xlink:href="#k" transform="matrix(1,0,0,1,176,681.6) translate(64 82.42392578125)"/><path d="M305.53 402.7l157.84-92.54" stroke="red" stroke-width="2" fill="none"/><path d="M306.06 403.54l-1.44.85.05-1.2v-.56l-.03-.58.4-.24z" fill="red"/><path d="M476.54 302.44l-9.96 11.2-4.7-8z" stroke="red" stroke-width="2" fill="red"/><path d="M305.88 569.04l155.35-71.15" stroke="red" stroke-width="2.67" fill="none"/><path d="M306.47 570.24l-1.86.85.07-1.5v-.56l-.05-.9.73-.32z" fill="red"/><path d="M475.4 491.4l-11.03 10.15-3.86-8.43z" stroke="red" stroke-width="2.67" fill="red"/><path d="M305.26 403.5l158.76 78.52" stroke="#000" stroke-width="1.33" fill="none"/><path d="M305.58 402.9l-.6 1.2-.34-.17.03-.72v-.76z"/><path d="M477.4 488.64l-14.84-2.17 4.1-8.3z" stroke="#000" stroke-width="1.33"/><path d="M305.02 403.77l165.3 266.5" stroke="#000" stroke-width="1.33" fill="none"/><path d="M305.6 403.43l-.96.6.03-.82v-.56l-.04-.77z"/><path d="M478.2 682.97l-11.46-9.68 7.88-4.9z" stroke="#000" stroke-width="1.33"/><path d="M305.22 569.97L465.07 675.4" stroke="#000" stroke-width="1.33" fill="none"/><path d="M305.6 569.42l-.73 1.1-.23-.14.03-.77v-.56l-.02-.25z"/><path d="M477.53 683.6l-14.46-3.97 5.1-7.74z" stroke="#000" stroke-width="1.33"/><path d="M609.52 301.82l145 172.53" stroke="red" stroke-width="2.67" fill="none"/><path d="M610.57 301l-1.97 1.65.07-1.84v-.56l-.08-1.6z" fill="red"/><path d="M764.56 486.3l-12.73-7.94 7.1-5.97z" stroke="red" stroke-width="2.67" fill="red"/><path d="M456 209.6h176v560H456z" stroke="#000" stroke-width="1.33" fill-opacity="0"/><path d="M610 489.6h137.42" stroke="#000" stroke-width="2.67" fill="none"/><path d="M610.03 490.93h-1.4l.04-1.32v-.56l-.04-.77h1.4z"/><path d="M763.02 489.6l-14.27 4.64v-9.28z" stroke="#000" stroke-width="2.67"/><path d="M609.5 683.77l145.27-178.72" stroke="#000" stroke-width="2.67" fill="none"/><path d="M610.56 684.58l-1.98 2.44.1-2.2-.02-.58-.05-1.25z"/><path d="M764.6 492.95l-5.4 14-7.18-5.86z" stroke="#000" stroke-width="2.67"/><path d="M160 112h160v32H160z" stroke="#000" stroke-opacity="0" stroke-width="1.33" fill-opacity="0"/><use xlink:href="#l" transform="matrix(1,0,0,1,180,112) translate(6.103515625 23.1044921875)"/><use xlink:href="#c" transform="matrix(1,0,0,1,180,112) translate(60.52734375 23.1044921875)"/><path d="M464 160h160v32H464z" stroke="#000" stroke-opacity="0" stroke-width="1.33" fill-opacity="0"/><use xlink:href="#m" transform="matrix(1,0,0,1,484,160) translate(26.11328125 15.361328125)"/><use xlink:href="#c" transform="matrix(1,0,0,1,484,160) translate(33.3154296875 35.177734375)"/><path d="M305.9 234.08l154.85 59.57" stroke="#000" stroke-width="2.67" fill="none"/><path d="M306.42 232.85l-.96 2.5-.85-.34.07-1.4v-.56l-.05-.9z"/><path d="M475.3 299.25l-14.97-.8 3.33-8.65z" stroke="#000" stroke-width="2.67"/><path d="M305.42 234.7l162.7 238.45" stroke="#000" stroke-width="2.67" fill="none"/><path d="M306.54 233.98l-1.94 1.32.07-1.7v-.56l-.1-1.94z"/><path d="M476.9 486.04l-11.87-9.18 7.66-5.22z" stroke="#000" stroke-width="2.67"/><path d="M305.15 234.84l167 431.4" stroke="#000" stroke-width="2.67" fill="none"/><path d="M306.4 234.4l-1.8.7.07-1.5v-.56l-.13-2.6.3-.12z"/><path d="M477.78 680.78l-9.48-11.63 8.65-3.35z" stroke="#000" stroke-width="2.67"/><path d="M907.2 692.8c0 35.35-28.65 64-64 64s-64-28.65-64-64 28.65-64 64-64 64 28.65 64 64z" stroke="#000" stroke-width="1.33" fill-opacity="0"/><path d="M843.2 756.8v-128" stroke="#000" stroke-width="1.33" fill="none"/><path d="M843.87 757.46H843.2l-.67-.02v-.66h1.34zM843.87 628.16v.66h-1.34v-.68H843.2z"/><path d="M787.2 673.6h64v32h-64z" stroke="#000" stroke-opacity="0" stroke-width="1.33" fill-opacity="0"/><use xlink:href="#n" transform="matrix(1,0,0,1,807.2,673.6) translate(-6.142822265625 23.81494140625)"/><path d="M859.9 670.6H896V715h-36.1z" fill="#fff" fill-opacity="0"/><path d="M873.27 700.26l1.85-7.04c2.05-7.96 5.9-15.66 13.27-15.66 3.18 0 5.68 2.5 5.68 8.4 0 7.64-6.4 15.93-16.85 15.93l-2.17 9.3h-4.5l2.33-9.3c-5.86 0-10.3-3.32-10.3-9 0-7.8 6.45-15.5 15.12-15.5h1.35l-.27.87c-6.23.65-11.65 7.3-11.65 14.4 0 4.3 2.7 7.6 6.12 7.6m7.2-11.87l-2.86 11.86c5.15 0 11.93-7.53 11.93-14.62 0-4.4-1.2-5.04-2.4-5.04-2.6 0-5.57 3.36-6.65 7.8"/><path d="M731.2 766.4h224v32h-224z" stroke="#000" stroke-opacity="0" stroke-width="1.33" fill-opacity="0"/><g><use xlink:href="#o" transform="matrix(1,0,0,1,751.2,766.4000000000001) translate(3.0595703125 22.8408203125)"/><use xlink:href="#p" transform="matrix(1,0,0,1,751.2,766.4000000000001) translate(74.2119140625 22.8408203125)"/><use xlink:href="#q" transform="matrix(1,0,0,1,751.2,766.4000000000001) translate(93.1083984375 22.8408203125)"/><use xlink:href="#r" transform="matrix(1,0,0,1,751.2,766.4000000000001) translate(114.2314453125 22.8408203125)"/><use xlink:href="#s" transform="matrix(1,0,0,1,751.2,766.4000000000001) translate(169.8173828125 22.8408203125)"/></g><path d="M731.2 609.6h224v200h-224z" fill-opacity="0"/><path d="M739.2 609.6h5.33m5.34 0h5.33m5.33 0h5.34m5.33 0h5.33m5.34 0h5.33m5.33 0h5.34m5.33 0h5.33m5.34 0h5.33m5.33 0h5.34m5.33 0h5.33m5.34 0h5.33m5.33 0h5.34m5.33 0h5.33m5.34 0h5.33m5.33 0h5.34m5.33 0h5.33m5.34 0h5.33m5.33 0h5.34m5.33 0h5.33m5.34 0h5.33m5.33 0h2.67v2.63m0 5.26v5.26m0 5.26v5.26m0 5.27v5.26m0 5.27v5.27m0 5.26v5.26m0 5.27v5.26m0 5.25v5.27m0 5.26v5.26m0 5.27v5.27m0 5.26v5.26m0 5.26v5.26m0 5.26v5.27m0 5.26v5.27m0 5.27v5.26m0 5.26v5.27m0 5.26v5.25m0 5.27v5.26m0 5.26v5.27m0 5.27v2.63h-2.67m-5.33 0h-5.33m-5.34 0h-5.33m-5.33 0h-5.34m-5.33 0h-5.33m-5.34 0h-5.33m-5.33 0h-5.34m-5.33 0h-5.33m-5.34 0h-5.33m-5.33 0h-5.34m-5.33 0h-5.33m-5.34 0h-5.33m-5.33 0h-5.34m-5.33 0h-5.33m-5.34 0h-5.33m-5.33 0h-5.34m-5.33 0h-5.33m-5.34 0h-5.33m-5.33 0h-5.34m-5.33 0h-5.33m-5.34 0h-5.33m-5.33 0h-2.67v-2.63m0-5.26v-5.26m0-5.26v-5.26m0-5.27v-5.26m0-5.27v-5.27m0-5.26v-5.26m0-5.27v-5.26m0-5.25v-5.27m0-5.26v-5.26m0-5.27v-5.27m0-5.26v-5.26m0-5.26v-5.26m0-5.26v-5.27m0-5.26v-5.27m0-5.27v-5.26m0-5.26v-5.27m0-5.26v-5.25m0-5.27v-5.26m0-5.26v-5.27m0-5.27v-2.63h2.67" stroke="#000" stroke-width="1.33" fill="none"/><defs><path d="M551-279c84-418 84-397 254-1130h330c93 424 173 655 249 1130 85-375 166-752 248-1130h299L1567 0h-350c-82-373-182-728-250-1116C902-767 895-785 715 0H365L2-1409h299c83 377 171 749 250 1130" id="t"/><path d="M563-1430c283 0 472 129 472 396 0 228-145 343-275 453-91 77-191 147-272 228-38 38-66 79-85 122h654V0H71v-195c94-197 235-331 412-476 98-81 167-146 207-198s60-103 60-153c0-123-62-184-185-184-131 0-181 74-199 194l-283-16c30-256 195-402 480-402" id="u"/><path d="M129 0v-209h349v-961L140-959v-221l353-229h266v1200h323V0H129" id="v"/><g id="a"><use transform="matrix(0.0107421875,0,0,0.0107421875,0,0)" xlink:href="#t"/><use transform="matrix(0.0064941406249999995,0,0,0.0064941406249999995,20.7646484375,2.5538208007812497)" xlink:href="#u"/><use transform="matrix(0.0064941406249999995,0,0,0.0064941406249999995,28.161474609375,-5.1076416015624995)" xlink:href="#v"/></g><path d="M795-1430c442 0 718 278 712 719-6 453-261 725-714 731C351 26 84-267 84-711c0-446 267-719 711-719zm-2 1218c281 0 413-203 413-499 0-284-138-487-411-487-277 0-414 199-414 487 0 285 142 499 412 499" id="w"/><path d="M483 20c-243 0-356-160-356-415v-687h281v607c0 190 64 285 192 285 148-1 227-151 227-312v-580h281c4 356-9 741 8 1082H848c-8-96-12-168-12-215h-5C765-71 670 20 483 20" id="x"/><path d="M440-330c0 98 31 152 123 154 22 0 53-5 94-14v174C588 7 509 18 420 18c-170-1-258-95-258-272v-638H25v-190h151l88-254h176v254h205v190H440v562" id="y"/><path d="M408-1082c8 36 12 125 12 176h4c63-133 179-199 346-199 126 0 224 48 293 145s104 235 104 414c0 322-121 566-415 566-162 0-274-77-328-192h-6c11 149 4 424 6 597H143V-833c0-102-3-185-8-249h273zm243 172c-175 0-232 173-231 372 0 117 20 206 60 270s96 96 169 96c150 0 225-125 225-374 0-243-74-364-223-364" id="z"/><g id="b"><use transform="matrix(0.009765625,0,0,0.009765625,0,0)" xlink:href="#w"/><use transform="matrix(0.009765625,0,0,0.009765625,15.556640625,0)" xlink:href="#x"/><use transform="matrix(0.009765625,0,0,0.009765625,27.7734375,0)" xlink:href="#y"/><use transform="matrix(0.009765625,0,0,0.009765625,34.43359375,0)" xlink:href="#z"/><use transform="matrix(0.009765625,0,0,0.009765625,46.650390625,0)" xlink:href="#x"/><use transform="matrix(0.009765625,0,0,0.009765625,58.8671875,0)" xlink:href="#y"/></g><path d="M137 0v-1409h295v1181h756V0H137" id="A"/><path d="M972 12c-145 0-202-73-217-205h-6C670-51 552 20 393 20 187 20 58-100 60-306c3-242 172-345 427-346l233-4c5-152-16-266-158-264-112 2-147 49-160 153l-293-14c38-217 204-321 465-321 262 0 427 133 427 388v394c3 101 7 160 89 160 21 0 42-2 62-6v152c-57 15-108 27-180 26zM483-176c165 0 247-140 237-325-89 1-231-1-283 23-55 25-84 70-84 150 0 94 44 152 130 152" id="B"/><path d="M283 425c-67 0-126-4-177-13V212c70 11 146 17 196-11 80-44 97-100 142-212L16-1082h297c99 309 178 499 271 841 73-291 164-564 250-841h294L700 57c-57 139-116 235-178 288s-142 80-239 80" id="C"/><path d="M375-487c-1 185 60 319 225 319 99 0 162-43 188-129l265 23C976-78 821 20 586 20 247 19 80-194 80-546c0-344 176-559 510-556 341 3 483 247 479 615H375zm422-176c-8-153-68-262-211-262-144 0-206 112-209 262h420" id="D"/><path d="M646-868c-165 0-222 146-222 337V0H143c-4-356 8-741-8-1082h268c4 15 14 211 13 231h4c48-123 63-177 149-229 44-27 147-31 197-8v235c-45-10-85-15-120-15" id="E"/><g id="c"><use transform="matrix(0.009765625,0,0,0.009765625,0,0)" xlink:href="#A"/><use transform="matrix(0.009765625,0,0,0.009765625,12.216796875,0)" xlink:href="#B"/><use transform="matrix(0.009765625,0,0,0.009765625,23.33984375,0)" xlink:href="#C"/><use transform="matrix(0.009765625,0,0,0.009765625,34.462890625,0)" xlink:href="#D"/><use transform="matrix(0.009765625,0,0,0.009765625,45.5859375,0)" xlink:href="#E"/></g><g id="d"><use transform="matrix(0.0107421875,0,0,0.0107421875,0,0)" xlink:href="#t"/><use transform="matrix(0.0064941406249999995,0,0,0.0064941406249999995,20.7646484375,2.5538208007812497)" xlink:href="#v"/><use transform="matrix(0.0064941406249999995,0,0,0.0064941406249999995,28.161474609375,-5.1076416015624995)" xlink:href="#v"/></g><g id="e"><use transform="matrix(0.0107421875,0,0,0.0107421875,0,0)" xlink:href="#t"/><use transform="matrix(0.0064941406249999995,0,0,0.0064941406249999995,20.7646484375,2.5538208007812497)" xlink:href="#v"/><use transform="matrix(0.0064941406249999995,0,0,0.0064941406249999995,28.161474609375,-5.1076416015624995)" xlink:href="#u"/></g><path d="M728-721c195 20 337 130 337 330 0 281-203 414-500 414S77-119 47-383l286-25c18 135 95 203 231 203 134 0 216-66 213-203-3-142-112-195-270-194h-98v-227h92c147 1 242-56 243-191 1-118-69-186-190-186-119 0-193 72-202 184l-281-20c27-242 216-388 488-388 270 0 470 122 470 375 0 194-125 298-301 330v4" id="F"/><g id="f"><use transform="matrix(0.0107421875,0,0,0.0107421875,0,0)" xlink:href="#t"/><use transform="matrix(0.0064941406249999995,0,0,0.0064941406249999995,20.7646484375,2.5538208007812497)" xlink:href="#v"/><use transform="matrix(0.0064941406249999995,0,0,0.0064941406249999995,28.161474609375,-5.1076416015624995)" xlink:href="#F"/></g><path d="M1038 0L684-561 330 0H18l488-741-447-668h312l313 498 313-498h310L879-741 1348 0h-310" id="G"/><g id="g"><use transform="matrix(0.0107421875,0,0,0.0107421875,0,0)" xlink:href="#G"/><use transform="matrix(0.0064941406249999995,0,0,0.0064941406249999995,14.673828125,2.5538208007812497)" xlink:href="#v"/></g><g id="h"><use transform="matrix(0.0107421875,0,0,0.0107421875,0,0)" xlink:href="#G"/><use transform="matrix(0.0064941406249999995,0,0,0.0064941406249999995,14.673828125,2.5538208007812497)" xlink:href="#u"/></g><g id="i"><use transform="matrix(0.0107421875,0,0,0.0107421875,0,0)" xlink:href="#G"/><use transform="matrix(0.0064941406249999995,0,0,0.0064941406249999995,14.673828125,2.5538208007812497)" xlink:href="#F"/></g><path d="M940-287V0H672v-287H31v-211l595-911h314v913h188v209H940zM672-496c3-219-7-452 9-659-119 218-288 448-421 659h412" id="H"/><g id="j"><use transform="matrix(0.0107421875,0,0,0.0107421875,0,0)" xlink:href="#G"/><use transform="matrix(0.0064941406249999995,0,0,0.0064941406249999995,14.673828125,2.5538208007812497)" xlink:href="#H"/></g><path d="M137 0v-1409h295V0H137" id="I"/><path d="M768-1103c243 0 356 161 356 416V0H844v-607c0-190-64-285-193-285-148 1-227 151-227 312V0H143c-4-356 9-741-8-1082h268c4 18 14 191 13 215h4c67-145 160-236 348-236" id="J"/><g id="l"><use transform="matrix(0.009765625,0,0,0.009765625,0,0)" xlink:href="#I"/><use transform="matrix(0.009765625,0,0,0.009765625,5.556640625,0)" xlink:href="#J"/><use transform="matrix(0.009765625,0,0,0.009765625,17.7734375,0)" xlink:href="#z"/><use transform="matrix(0.009765625,0,0,0.009765625,29.990234375,0)" xlink:href="#x"/><use transform="matrix(0.009765625,0,0,0.009765625,42.20703125,0)" xlink:href="#y"/></g><path d="M1046 0v-604H432V0H137v-1409h295v561h614v-561h295V0h-295" id="K"/><path d="M143-1277v-207h281v207H143zM143 0v-1082h281V0H143" id="L"/><path d="M500-1102c166 0 271 75 329 191-3-189-2-382-2-573h281v1248c0 67 3 145 8 236H844c-6-25-16-141-15-176h-4C764-45 649 20 479 20c-126 0-223-50-292-148S84-363 84-540c0-321 122-562 416-562zm331 555c0-200-54-364-231-364-75 0-131 30-168 91s-55 155-55 280c0 245 74 368 221 368 74 0 131-33 172-98s61-157 61-277" id="M"/><g id="m"><use transform="matrix(0.009765625,0,0,0.009765625,0,0)" xlink:href="#K"/><use transform="matrix(0.009765625,0,0,0.009765625,14.443359375,0)" xlink:href="#L"/><use transform="matrix(0.009765625,0,0,0.009765625,20,0)" xlink:href="#M"/><use transform="matrix(0.009765625,0,0,0.009765625,32.216796875,0)" xlink:href="#M"/><use transform="matrix(0.009765625,0,0,0.009765625,44.43359375,0)" xlink:href="#D"/><use transform="matrix(0.009765625,0,0,0.009765625,55.556640625,0)" xlink:href="#J"/></g><path d="M834 0L545-490l-121 84V0H143v-1484h281v850l386-448h302L732-660 1141 0H834" id="N"/><g id="n"><use transform="matrix(0.0107421875,0,0,0.0107421875,0,0)" xlink:href="#t"/><use transform="matrix(0.0064941406249999995,0,0,0.0064941406249999995,20.7646484375,2.5538208007812497)" xlink:href="#A"/><use transform="matrix(0.0064941406249999995,0,0,0.0064941406249999995,28.888818359375,-5.1076416015624995)" xlink:href="#N"/></g><path d="M1082 0L328-1200c20 384 6 801 10 1200H168v-1409h222l762 1208c-25-412-6-786-12-1208h172V0h-230" id="O"/><path d="M87-548c0-338 159-553 484-554 325-2 484 204 477 599H276c-1 227 88 385 302 388 146 2 246-65 283-166l158 45C954-65 807 20 578 20 240 20 87-193 87-548zm775-93c-19-206-90-328-294-328-185 0-285 140-290 328h584" id="P"/><path d="M476 20C225 20 133-99 133-361v-721h181v686c0 183 40 279 223 277 184-2 280-141 280-336v-627h180c3 345-6 754 6 1082H833c-5-68-6-94-8-185h-3C746-51 665 20 476 20" id="Q"/><path d="M318-861c55-157 83-241 257-241 24 0 48 3 73 10v165c-24-7-56-10-96-10-75 0-132 33-171 97s-59 156-59 276V0H142c-3-364 6-725-6-1082h170c5 123 8 196 8 221h4" id="R"/><path d="M571-1102c350 0 480 196 482 560 2 357-151 562-488 562C233 20 86-198 86-542c0-373 162-560 485-560zm-8 989c244 0 301-164 301-429 0-266-49-427-290-427-239 0-299 165-299 427 0 252 61 429 288 429" id="S"/><path d="M663-1102c251 0 343 119 343 381V0H825v-686c0-183-40-279-223-277-184 2-280 141-280 336V0H142c-3-345 6-754-6-1082h170c5 68 6 94 8 185h3c76-134 157-205 346-205" id="T"/><g id="o"><use transform="matrix(0.009765625,0,0,0.009765625,0,0)" xlink:href="#O"/><use transform="matrix(0.009765625,0,0,0.009765625,14.443359375,0)" xlink:href="#P"/><use transform="matrix(0.009765625,0,0,0.009765625,25.56640625,0)" xlink:href="#Q"/><use transform="matrix(0.009765625,0,0,0.009765625,36.689453125,0)" xlink:href="#R"/><use transform="matrix(0.009765625,0,0,0.009765625,43.349609375,0)" xlink:href="#S"/><use transform="matrix(0.009765625,0,0,0.009765625,54.47265625,0)" xlink:href="#T"/></g><path d="M1106 0L543-680 359-540V0H168v-1409h191v706l679-706h225L663-797 1343 0h-237" id="U"/><use transform="matrix(0.009765625,0,0,0.009765625,0,0)" xlink:href="#U" id="p"/><path d="M137-1312v-172h180v172H137zM137 0v-1082h180V0H137" id="V"/><g id="q"><use transform="matrix(0.009765625,0,0,0.009765625,0,0)" xlink:href="#V"/><use transform="matrix(0.009765625,0,0,0.009765625,4.443359375,0)" xlink:href="#T"/></g><path d="M168 0v-1409h191v1253h712V0H168" id="W"/><path d="M797-207C713-60 620 16 414 20 203 24 88-98 87-302c0-112 37-198 111-258s192-93 356-96l243-4c10-201-43-307-232-305-154 2-223 43-242 172l-188-17c31-195 175-292 434-292s410 116 410 364v466c3 95 12 159 101 161 17 0 37-2 59-7V-6c-45 11-92 16-139 16-143-2-188-76-197-217h-6zm-525-92c-1 116 66 187 183 184 230-7 361-164 342-419-124 5-305-2-389 30-83 32-136 92-136 205" id="X"/><path d="M350 384c-71 46-190 48-283 30V279c25 4 53 6 84 6 123 0 227-124 283-290L5-1082h192c109 293 229 581 326 886 105-293 205-591 307-886h190L604 0c-45 115-86 202-125 258s-83 96-129 126" id="Y"/><g id="r"><use transform="matrix(0.009765625,0,0,0.009765625,0,0)" xlink:href="#W"/><use transform="matrix(0.009765625,0,0,0.009765625,11.123046875,0)" xlink:href="#X"/><use transform="matrix(0.009765625,0,0,0.009765625,22.24609375,0)" xlink:href="#Y"/><use transform="matrix(0.009765625,0,0,0.009765625,32.24609375,0)" xlink:href="#P"/><use transform="matrix(0.009765625,0,0,0.009765625,43.369140625,0)" xlink:href="#R"/></g><use transform="matrix(0.009765625,0,0,0.009765625,0,0)" xlink:href="#W" id="s"/></defs></g></svg>