<svg xmlns="http://www.w3.org/2000/svg" xmlns:xlink="http://www.w3.org/1999/xlink" xmlns:lucid="lucid" width="824" height="520"><g transform="translate(-140 -220)" lucid:page-tab-id="KNB39watW11k3"><path d="M0 0h1360v1760H0z" fill="#fff"/><path d="M635.2 416h67.2v32h-67.2z" stroke="#000" stroke-opacity="0" stroke-width="1.33" fill-opacity="0"/><use xlink:href="#a" transform="matrix(1,0,0,1,655.2,416) translate(-5.432519531249994 23.1044921875)"/><path d="M384 416h64v32h-64z" stroke="#000" stroke-opacity="0" stroke-width="1.33" fill-opacity="0"/><use xlink:href="#b" transform="matrix(1,0,0,1,404,416) translate(-6.37841796875 23.1044921875)"/><path d="M337.3 397.33l-.72-24.76" stroke="#000" stroke-width="2.67" fill="none"/><path d="M338.67 398.67H336l-.04-1.33 2.67-.08z"/><path d="M336.13 356.98l5.04 14.13-9.27.27z" stroke="#000" stroke-width="2.67"/><path d="M386.67 448h40.08" stroke="red" stroke-width="2.67" fill="none"/><path d="M386.7 449.33h-1.37v-2.66h1.37z" fill="red"/><path d="M442.35 448l-14.26 4.64v-9.28z" stroke="red" stroke-width="2.67" fill="red"/><path d="M192 410.67c0-5.9 4.78-10.67 10.67-10.67h170.66c5.9 0 10.67 4.78 10.67 10.67v74.66c0 5.9-4.78 10.67-10.67 10.67H202.67c-5.9 0-10.67-4.78-10.67-10.67z" stroke="#000" stroke-width="2.67" fill-opacity="0"/><use xlink:href="#c" transform="matrix(1,0,0,1,212,400) translate(34.330078125 54.8408203125)"/><use xlink:href="#d" transform="matrix(1,0,0,1,212,400) translate(83.216796875 54.8408203125)"/><path d="M593.3 397.33l-.7-24.1" stroke="red" stroke-width="2.67" fill="none"/><path d="M594.67 398.67H592l-.04-1.33 2.67-.08z" fill="red"/><path d="M592.13 357.65l5.05 14.12-9.27.27z" stroke="red" stroke-width="2.67" fill="red"/><path d="M642.67 448h36.88" stroke="red" stroke-width="2.67" fill="none"/><path d="M642.7 449.33h-1.37v-2.66h1.37z" fill="red"/><path d="M695.15 448l-14.26 4.64v-9.28z" stroke="red" stroke-width="2.67" fill="red"/><path d="M448 410.67c0-5.9 4.78-10.67 10.67-10.67h170.66c5.9 0 10.67 4.78 10.67 10.67v74.66c0 5.9-4.78 10.67-10.67 10.67H458.67c-5.9 0-10.67-4.78-10.67-10.67z" stroke="red" stroke-width="2.67" fill-opacity="0"/><use xlink:href="#c" transform="matrix(1,0,0,1,468,400) translate(34.330078125 54.8408203125)"/><use xlink:href="#d" transform="matrix(1,0,0,1,468,400) translate(83.216796875 54.8408203125)"/><path d="M846.1 397.33l-.72-24.76" stroke="#000" stroke-width="2.67" fill="none"/><path d="M847.47 398.67h-2.67l-.04-1.33 2.67-.08z"/><path d="M844.93 356.98l5.04 14.13-9.27.27z" stroke="#000" stroke-width="2.67"/><path d="M700.8 410.67c0-5.9 4.78-10.67 10.67-10.67h170.66c5.9 0 10.67 4.78 10.67 10.67v74.66c0 5.9-4.78 10.67-10.67 10.67H711.47c-5.9 0-10.67-4.78-10.67-10.67z" stroke="#000" stroke-width="2.67" fill-opacity="0"/><use xlink:href="#c" transform="matrix(1,0,0,1,720.8000000000001,400) translate(34.330078125 54.8408203125)"/><use xlink:href="#d" transform="matrix(1,0,0,1,720.8000000000001,400) translate(83.216796875 54.8408203125)"/><path d="M225.57 574l-1.26-56.76" stroke="#000" stroke-width="2.67" fill="none"/><path d="M226.93 575.33h-2.66l-.03-1.33 2.66-.06z"/><path d="M223.96 501.65l4.95 14.16-9.25.2z" stroke="#000" stroke-width="2.67"/><path d="M193.6 576h64v120h-64z" fill-opacity="0"/><path d="M201.6 576h5.33m5.34 0h5.33m5.33 0h5.34m5.33 0h5.33m5.34 0h5.33m5.33 0h2.67v2.73m0 5.45v5.46m0 5.45v5.45m0 5.45v5.45m0 5.46v5.46m0 5.46v5.45m0 5.46v5.45m0 5.46v5.45m0 5.45V666m0 5.45v5.46m0 5.46v5.46m0 5.45V696h-2.67m-5.33 0h-5.33m-5.34 0h-5.33m-5.33 0h-5.34m-5.33 0h-5.33m-5.34 0h-5.33m-5.33 0h-2.67v-2.73m0-5.45v-5.46m0-5.45v-5.45m0-5.45v-5.45m0-5.46v-5.46m0-5.46v-5.45m0-5.46v-5.45m0-5.46v-5.45m0-5.45V606m0-5.45v-5.46m0-5.46v-5.46m0-5.45V576h2.67" stroke="#000" stroke-width="1.33" fill="none"/><use xlink:href="#e" transform="matrix(1,0,0,1,213.60000000000002,576) translate(-4.70849609375 67.1044921875)"/><path d="M481.6 573.33l.28-56.08" stroke="red" stroke-width="2.67" fill="none"/><path d="M482.94 573.3v1.37h-2.67v-1.38z" fill="red"/><path d="M481.95 501.65l4.57 14.3-9.27-.06z" stroke="red" stroke-width="2.67" fill="red"/><path d="M737.6 574v-54.9" stroke="#000" stroke-width="2.67" fill="none"/><path d="M738.93 575.33h-2.66v-1.36h2.66z"/><path d="M737.6 503.5l4.64 14.28h-9.28z" stroke="#000" stroke-width="2.67"/><path d="M304 272h64v80h-64z" fill-opacity="0"/><path d="M312 272h5.33m5.34 0H328m5.33 0h5.34m5.33 0h5.33m5.34 0H360m5.33 0H368v2.5m0 5v5m0 5v5m0 5v5m0 5v5m0 5v5m0 5v5m0 5v5m0 5v2.5h-2.67m-5.33 0h-5.33m-5.34 0H344m-5.33 0h-5.34m-5.33 0h-5.33m-5.34 0H312m-5.33 0H304v-2.5m0-5v-5m0-5v-5m0-5v-5m0-5v-5m0-5v-5m0-5v-5m0-5v-5m0-5V272h2.67" stroke="#000" stroke-width="1.33" fill="none"/><use xlink:href="#f" transform="matrix(1,0,0,1,324,272) translate(-6.37841796875 47.1044921875)"/><path d="M449.6 576h64v120h-64z" fill-opacity="0"/><path d="M465.6 576h10.67m10.66 0h10.67m10.67 0h5.33v5m0 10v10m0 10v10m0 10v10m0 10v10m0 10v10m0 10v5h-5.33m-10.67 0h-10.67m-10.66 0H465.6m-10.67 0h-5.33v-5m0-10v-10m0-10v-10m0-10v-10m0-10v-10m0-10v-10m0-10v-5h5.33" stroke="red" stroke-width="2.67" fill="none"/><use xlink:href="#g" transform="matrix(1,0,0,1,469.6,576) translate(-0.9740234374999979 67.1044921875)"/><path d="M705.6 576h64v120h-64z" fill-opacity="0"/><path d="M713.6 576h5.33m5.34 0h5.33m5.33 0h5.34m5.33 0h5.33m5.34 0h5.33m5.33 0h2.67v2.73m0 5.45v5.46m0 5.45v5.45m0 5.45v5.45m0 5.46v5.46m0 5.46v5.45m0 5.46v5.45m0 5.46v5.45m0 5.45V666m0 5.45v5.46m0 5.46v5.46m0 5.45V696h-2.67m-5.33 0h-5.33m-5.34 0h-5.33m-5.33 0h-5.34m-5.33 0h-5.33m-5.34 0h-5.33m-5.33 0h-2.67v-2.73m0-5.45v-5.46m0-5.45v-5.45m0-5.45v-5.45m0-5.46v-5.46m0-5.46v-5.45m0-5.46v-5.45m0-5.46v-5.45m0-5.45V606m0-5.45v-5.46m0-5.46v-5.46m0-5.45V576h2.67" stroke="#000" stroke-width="1.33" fill="none"/><use xlink:href="#h" transform="matrix(1,0,0,1,725.6,576) translate(-5.762597656249998 67.1044921875)"/><path d="M560 272h64v80h-64z" fill-opacity="0"/><path d="M576 272h10.67m10.66 0H608m10.67 0H624v5m0 10v10m0 10v10m0 10v10m0 10v5h-5.33M608 352h-10.67m-10.66 0H576m-10.67 0H560v-5m0-10v-10m0-10v-10m0-10v-10m0-10v-5h5.33" stroke="red" stroke-width="2.67" fill="none"/><use xlink:href="#i" transform="matrix(1,0,0,1,580,272) translate(-4.042578124999999 47.1044921875)"/><path d="M160 245c0-2.76 2.24-5 5-5h774c2.76 0 5 2.24 5 5v470c0 2.76-2.24 5-5 5H165c-2.76 0-5-2.24-5-5z" stroke="#000" stroke-width="2" fill="#999" fill-opacity=".3"/><path d="M812.8 272h64v80h-64z" fill-opacity="0"/><path d="M820.8 272h5.33m5.34 0h5.33m5.33 0h5.34m5.33 0h5.33m5.34 0h5.33m5.33 0h2.67v2.5m0 5v5m0 5v5m0 5v5m0 5v5m0 5v5m0 5v5m0 5v5m0 5v2.5h-2.67m-5.33 0h-5.33m-5.34 0h-5.33m-5.33 0h-5.34m-5.33 0h-5.33m-5.34 0h-5.33m-5.33 0h-2.67v-2.5m0-5v-5m0-5v-5m0-5v-5m0-5v-5m0-5v-5m0-5v-5m0-5v-5m0-5V272h2.67" stroke="#000" stroke-width="1.33" fill="none"/><g><use xlink:href="#j" transform="matrix(1,0,0,1,832.8000000000001,272) translate(-8.831152343749995 47.1044921875)"/></g><defs><path fill="red" d="M972 12c-145 0-202-73-217-205h-6C670-51 552 20 393 20 187 20 58-100 60-306c3-242 172-345 427-346l233-4c5-152-16-266-158-264-112 2-147 49-160 153l-293-14c38-217 204-321 465-321 262 0 427 133 427 388v394c3 101 7 160 89 160 21 0 42-2 62-6v152c-57 15-108 27-180 26zM483-176c165 0 247-140 237-325-89 1-231-1-283 23-55 25-84 70-84 150 0 94 44 152 130 152" id="k"/><path fill="red" d="M124-516v-322l1027-391v228L318-676l833 324v227" id="l"/><path fill="red" d="M408-357c-23 90-17 181 76 180 21 0 57-4 108-13L560-8C506 8 445 16 376 16c-156 2-260-75-260-225 0-47 5-100 16-157l102-526H86l37-190h162l137-254h176l-48 254h202l-35 190H512" id="m"/><path fill="red" d="M750-569v408H524v-408H125v-224h399v-408h226v408h402v224H750" id="n"/><path fill="red" d="M33 0l43-231h349l179-921-381 214 47-242 396-229h270L706-231h323L985 0H33" id="o"/><path fill="red" d="M124-125v-227l832-324-832-325v-228l1027 391v322" id="p"/><g id="a"><use transform="matrix(0.009765625,0,0,0.009765625,0,0)" xlink:href="#k"/><use transform="matrix(0.004101562499999999,0,0,0.004101562499999999,16.6796875,-3.2402343749999996)" xlink:href="#l"/><use transform="matrix(0.004101562499999999,0,0,0.004101562499999999,21.585156249999997,-3.2402343749999996)" xlink:href="#m"/><use transform="matrix(0.004101562499999999,0,0,0.004101562499999999,24.382421875,-3.2402343749999996)" xlink:href="#n"/><use transform="matrix(0.004101562499999999,0,0,0.004101562499999999,29.287890624999996,-3.2402343749999996)" xlink:href="#o"/><use transform="matrix(0.004101562499999999,0,0,0.004101562499999999,33.95957031249999,-3.2402343749999996)" xlink:href="#p"/></g><path fill="red" d="M56-409l47-244h520l-47 244H56" id="q"/><g id="b"><use transform="matrix(0.009765625,0,0,0.009765625,0,0)" xlink:href="#k"/><use transform="matrix(0.004101562499999999,0,0,0.004101562499999999,16.6796875,-3.2402343749999996)" xlink:href="#l"/><use transform="matrix(0.004101562499999999,0,0,0.004101562499999999,21.585156249999997,-3.2402343749999996)" xlink:href="#m"/><use transform="matrix(0.004101562499999999,0,0,0.004101562499999999,24.382421875,-3.2402343749999996)" xlink:href="#q"/><use transform="matrix(0.004101562499999999,0,0,0.004101562499999999,27.1796875,-3.2402343749999996)" xlink:href="#o"/><use transform="matrix(0.004101562499999999,0,0,0.004101562499999999,31.8513671875,-3.2402343749999996)" xlink:href="#p"/></g><path d="M1328-1006c0 221-145 368-344 399L1384 0h-220L798-585H359V0H168v-1409h663c292-4 497 130 497 403zM820-736c188 2 316-89 316-268s-133-252-324-252H359v520h461" id="r"/><path d="M1082 0L328-1200c20 384 6 801 10 1200H168v-1409h222l762 1208c-25-412-6-786-12-1208h172V0h-230" id="s"/><g id="c"><use transform="matrix(0.009765625,0,0,0.009765625,0,0)" xlink:href="#r"/><use transform="matrix(0.009765625,0,0,0.009765625,14.443359375,0)" xlink:href="#s"/><use transform="matrix(0.009765625,0,0,0.009765625,28.88671875,0)" xlink:href="#s"/></g><path d="M1207-1021c-59-155-207-253-415-253-322-2-494 232-494 563 0 326 186 574 502 574 197 0 346-98 445-293l156 78C1298-131 1096 20 791 20c-448 0-682-279-687-731-5-437 254-721 686-719 309 2 507 125 598 349" id="t"/><path d="M87-548c0-338 159-553 484-554 325-2 484 204 477 599H276c-1 227 88 385 302 388 146 2 246-65 283-166l158 45C954-65 807 20 578 20 240 20 87-193 87-548zm775-93c-19-206-90-328-294-328-185 0-285 140-290 328h584" id="u"/><path d="M138 0v-1484h180V0H138" id="v"/><g id="d"><use transform="matrix(0.009765625,0,0,0.009765625,0,0)" xlink:href="#t"/><use transform="matrix(0.009765625,0,0,0.009765625,14.443359375,0)" xlink:href="#u"/><use transform="matrix(0.009765625,0,0,0.009765625,25.56640625,0)" xlink:href="#v"/><use transform="matrix(0.009765625,0,0,0.009765625,30.009765625,0)" xlink:href="#v"/></g><path d="M1038 0L684-561 330 0H18l488-741-447-668h312l313 498 313-498h310L879-741 1348 0h-310" id="w"/><path d="M86-516v-322l1027-391v228L280-676l833 324v227" id="x"/><path d="M440-330c0 98 31 152 123 154 22 0 53-5 94-14v174C588 7 509 18 420 18c-170-1-258-95-258-272v-638H25v-190h151l88-254h176v254h205v190H440v562" id="y"/><path d="M80-409v-244h520v244H80" id="z"/><path d="M129 0v-209h349v-961L140-959v-221l353-229h266v1200h323V0H129" id="A"/><path d="M86-125v-227l832-324-832-325v-228l1027 391v322" id="B"/><g id="e"><use transform="matrix(0.009765625,0,0,0.009765625,0,0)" xlink:href="#w"/><use transform="matrix(0.004101562499999999,0,0,0.004101562499999999,13.33984375,-3.2258789062499993)" xlink:href="#x"/><use transform="matrix(0.004101562499999999,0,0,0.004101562499999999,18.245312499999997,-3.2258789062499993)" xlink:href="#y"/><use transform="matrix(0.004101562499999999,0,0,0.004101562499999999,21.042578125,-3.2258789062499993)" xlink:href="#z"/><use transform="matrix(0.004101562499999999,0,0,0.004101562499999999,23.83984375,-3.2258789062499993)" xlink:href="#A"/><use transform="matrix(0.004101562499999999,0,0,0.004101562499999999,28.5115234375,-3.2258789062499993)" xlink:href="#B"/></g><path d="M972 12c-145 0-202-73-217-205h-6C670-51 552 20 393 20 187 20 58-100 60-306c3-242 172-345 427-346l233-4c5-152-16-266-158-264-112 2-147 49-160 153l-293-14c38-217 204-321 465-321 262 0 427 133 427 388v394c3 101 7 160 89 160 21 0 42-2 62-6v152c-57 15-108 27-180 26zM483-176c165 0 247-140 237-325-89 1-231-1-283 23-55 25-84 70-84 150 0 94 44 152 130 152" id="C"/><path d="M124-516v-322l1027-391v228L318-676l833 324v227" id="D"/><path d="M408-357c-23 90-17 181 76 180 21 0 57-4 108-13L560-8C506 8 445 16 376 16c-156 2-260-75-260-225 0-47 5-100 16-157l102-526H86l37-190h162l137-254h176l-48 254h202l-35 190H512" id="E"/><path d="M56-409l47-244h520l-47 244H56" id="F"/><path d="M33 0l43-231h349l179-921-381 214 47-242 396-229h270L706-231h323L985 0H33" id="G"/><path d="M124-125v-227l832-324-832-325v-228l1027 391v322" id="H"/><g id="f"><use transform="matrix(0.009765625,0,0,0.009765625,0,0)" xlink:href="#C"/><use transform="matrix(0.004101562499999999,0,0,0.004101562499999999,16.6796875,-3.2402343749999996)" xlink:href="#D"/><use transform="matrix(0.004101562499999999,0,0,0.004101562499999999,21.585156249999997,-3.2402343749999996)" xlink:href="#E"/><use transform="matrix(0.004101562499999999,0,0,0.004101562499999999,24.382421875,-3.2402343749999996)" xlink:href="#F"/><use transform="matrix(0.004101562499999999,0,0,0.004101562499999999,27.1796875,-3.2402343749999996)" xlink:href="#G"/><use transform="matrix(0.004101562499999999,0,0,0.004101562499999999,31.8513671875,-3.2402343749999996)" xlink:href="#H"/></g><path fill="red" d="M1038 0L684-561 330 0H18l488-741-447-668h312l313 498 313-498h310L879-741 1348 0h-310" id="I"/><path fill="red" d="M86-516v-322l1027-391v228L280-676l833 324v227" id="J"/><path fill="red" d="M440-330c0 98 31 152 123 154 22 0 53-5 94-14v174C588 7 509 18 420 18c-170-1-258-95-258-272v-638H25v-190h151l88-254h176v254h205v190H440v562" id="K"/><path fill="red" d="M86-125v-227l832-324-832-325v-228l1027 391v322" id="L"/><g id="g"><use transform="matrix(0.009765625,0,0,0.009765625,0,0)" xlink:href="#I"/><use transform="matrix(0.004101562499999999,0,0,0.004101562499999999,13.33984375,-3.2258789062499993)" xlink:href="#J"/><use transform="matrix(0.004101562499999999,0,0,0.004101562499999999,18.245312499999997,-3.2258789062499993)" xlink:href="#K"/><use transform="matrix(0.004101562499999999,0,0,0.004101562499999999,21.042578125,-3.2258789062499993)" xlink:href="#L"/></g><path d="M711-569v408H485v-408H86v-224h399v-408h226v408h402v224H711" id="M"/><g id="h"><use transform="matrix(0.009765625,0,0,0.009765625,0,0)" xlink:href="#w"/><use transform="matrix(0.004101562499999999,0,0,0.004101562499999999,13.33984375,-3.2258789062499993)" xlink:href="#x"/><use transform="matrix(0.004101562499999999,0,0,0.004101562499999999,18.245312499999997,-3.2258789062499993)" xlink:href="#y"/><use transform="matrix(0.004101562499999999,0,0,0.004101562499999999,21.042578125,-3.2258789062499993)" xlink:href="#M"/><use transform="matrix(0.004101562499999999,0,0,0.004101562499999999,25.948046874999996,-3.2258789062499993)" xlink:href="#A"/><use transform="matrix(0.004101562499999999,0,0,0.004101562499999999,30.619726562499995,-3.2258789062499993)" xlink:href="#B"/></g><g id="i"><use transform="matrix(0.009765625,0,0,0.009765625,0,0)" xlink:href="#k"/><use transform="matrix(0.004101562499999999,0,0,0.004101562499999999,16.6796875,-3.2402343749999996)" xlink:href="#l"/><use transform="matrix(0.004101562499999999,0,0,0.004101562499999999,21.585156249999997,-3.2402343749999996)" xlink:href="#m"/><use transform="matrix(0.004101562499999999,0,0,0.004101562499999999,24.382421875,-3.2402343749999996)" xlink:href="#q"/><use transform="matrix(0.004101562499999999,0,0,0.004101562499999999,27.1796875,-3.2402343749999996)" xlink:href="#p"/></g><path d="M750-569v408H524v-408H125v-224h399v-408h226v408h402v224H750" id="N"/><g id="j"><use transform="matrix(0.009765625,0,0,0.009765625,0,0)" xlink:href="#C"/><use transform="matrix(0.004101562499999999,0,0,0.004101562499999999,16.6796875,-3.2402343749999996)" xlink:href="#D"/><use transform="matrix(0.004101562499999999,0,0,0.004101562499999999,21.585156249999997,-3.2402343749999996)" xlink:href="#E"/><use transform="matrix(0.004101562499999999,0,0,0.004101562499999999,24.382421875,-3.2402343749999996)" xlink:href="#N"/><use transform="matrix(0.004101562499999999,0,0,0.004101562499999999,29.287890624999996,-3.2402343749999996)" xlink:href="#G"/><use transform="matrix(0.004101562499999999,0,0,0.004101562499999999,33.95957031249999,-3.2402343749999996)" xlink:href="#F"/><use transform="matrix(0.004101562499999999,0,0,0.004101562499999999,36.75683593749999,-3.2402343749999996)" xlink:href="#H"/></g></defs></g></svg>